<?xml version="1.0" encoding="utf-8"?>
<svg xmlns="http://www.w3.org/2000/svg" width="100%" height="100%" buffered-rendering="dynamic" style="font-family:arial,Tahoma,verdana,jennifer;background:#fff"><g transform="translate(0.5,0.5)"><defs><clipPath id="clip-id--1537485199196-69"><rect x="0" y="0" width="512.265625" height="552.796875"></rect></clipPath><clipPath id="clip-rect-id--1537485199196-1"><rect x="0" y="0" width="512.265625" height="552.796875"></rect></clipPath></defs><rect rx="0" ry="0" fill="#fff" fill-opacity="0" stroke="#fff" stroke-width="0" width="512.265625" height="552.796875" x="0" y="0" transform="translate(50,50)"></rect><g class="grid-block" transform="translate(50,602.796875)"><g transform="translate(0,0)"><line x1="0" y1="0" x2="0" y2="3" stroke="#bfbfbf" stroke-width="1.5" stroke-dasharray="none" stroke-opacity="1"></line><text x="64.033203125" y="13" dy="3.6666666666666665" fill="#333" text-anchor="middle" font-size="11" font-weight="normal">하위 25%</text></g><g transform="translate(128.06640625,0)"><line x1="0" y1="0" x2="0" y2="3" stroke="#bfbfbf" stroke-width="1.5" stroke-dasharray="none" stroke-opacity="1"></line><text x="64.033203125" y="13" dy="3.6666666666666665" fill="#333" text-anchor="middle" font-size="11" font-weight="normal">하위 50%</text></g><g transform="translate(256.1328125,0)"><line x1="0" y1="0" x2="0" y2="3" stroke="#bfbfbf" stroke-width="1.5" stroke-dasharray="none" stroke-opacity="1"></line><text x="64.033203125" y="13" dy="3.6666666666666665" fill="#333" text-anchor="middle" font-size="11" font-weight="normal">상위 50%</text></g><g transform="translate(384.19921875,0)"><line x1="0" y1="0" x2="0" y2="3" stroke="#bfbfbf" stroke-width="1.5" stroke-dasharray="none" stroke-opacity="1"></line><text x="64.033203125" y="13" dy="3.6666666666666665" fill="#333" text-anchor="middle" font-size="11" font-weight="normal">상위 25%</text></g><line x1="0" y1="0" x2="512.265625" y2="0" stroke="#bfbfbf" stroke-width="2" stroke-opacity="1"></line><g transform="translate(512.265625,0)"><line x1="0" y1="0" x2="0" y2="3" stroke="#bfbfbf" stroke-width="1.5" stroke-dasharray="none" stroke-opacity="1"></line></g></g><g transform="translate(50,50)"></g><g class="grid-range" transform="translate(50,50)"><g transform="translate(0,0)"><line x1="0" y1="0" x2="-3" y2="0" stroke="#bfbfbf" stroke-width="1.5" stroke-dasharray="none" stroke-opacity="1"></line><text x="-8" y="0" dy="3.6666666666666665" fill="#333" text-anchor="end" font-size="11" font-weight="normal">15</text></g><g transform="translate(0,184.265625)"><line x1="0" y1="0" x2="-3" y2="0" stroke="#bfbfbf" stroke-width="1.5" stroke-dasharray="none" stroke-opacity="1"></line><text x="-8" y="0" dy="3.6666666666666665" fill="#333" text-anchor="end" font-size="11" font-weight="normal">10</text></g><g transform="translate(0,368.53125)"><line x1="0" y1="0" x2="-3" y2="0" stroke="#bfbfbf" stroke-width="1.5" stroke-dasharray="none" stroke-opacity="1"></line><text x="-8" y="0" dy="3.6666666666666665" fill="#333" text-anchor="end" font-size="11" font-weight="normal">5</text></g><g transform="translate(0,552.796875)"><line x1="0" y1="0" x2="-3" y2="0" stroke="#bfbfbf" stroke-width="1.5" stroke-dasharray="none" stroke-opacity="1"></line><text x="-8" y="0" dy="3.6666666666666665" fill="#333" text-anchor="end" font-size="11" font-weight="normal">0</text></g><line x1="0" y1="0" x2="0" y2="552.796875" stroke="#bfbfbf" stroke-width="2" stroke-opacity="1"></line></g><g transform="translate(50,50)"></g><g display="none" class="grid-panel" transform="translate(50,50)"><rect x="0" y="0" width="512.265625" height="552.796875" fill="transparent" stroke="transparent"></rect></g><g clip-path="url(#clip-id--1537485199196-69)" class="brush-column" transform="translate(50,50)"><path width="68.06640625" height="158.46843750000005" fill="#7977C2" stroke="none" stroke-width="0" stroke-opacity="0" d="M0,3 A3,3 0 0,1 3,0 H65.06640625 A3,3 0 0,1 68.06640625,3 V158.46843750000005 A0,0 0 0,1 68.06640625,158.46843750000005 H0 A0,0 0 0,1 0,158.46843750000005 Z" transform="translate(30,394.32843749999995)"></path><path width="68.06640625" height="213.74812499999996" fill="#7977C2" stroke="none" stroke-width="0" stroke-opacity="0" d="M0,3 A3,3 0 0,1 3,0 H65.06640625 A3,3 0 0,1 68.06640625,3 V213.74812499999996 A0,0 0 0,1 68.06640625,213.74812499999996 H0 A0,0 0 0,1 0,213.74812499999996 Z" transform="translate(158.06640625,339.04875000000004)"></path><path width="68.06640625" height="243.23062500000003" fill="#7977C2" stroke="none" stroke-width="0" stroke-opacity="0" d="M0,3 A3,3 0 0,1 3,0 H65.06640625 A3,3 0 0,1 68.06640625,3 V243.23062500000003 A0,0 0 0,1 68.06640625,243.23062500000003 H0 A0,0 0 0,1 0,243.23062500000003 Z" transform="translate(286.1328125,309.56624999999997)"></path><path width="68.06640625" height="490.1465625" fill="#7977C2" stroke="none" stroke-width="0" stroke-opacity="0" d="M0,3 A3,3 0 0,1 3,0 H65.06640625 A3,3 0 0,1 68.06640625,3 V490.1465625 A0,0 0 0,1 68.06640625,490.1465625 H0 A0,0 0 0,1 0,490.1465625 Z" transform="translate(414.19921875,62.650312499999984)"></path><g visibility="hidden"><text fill="#333" font-size="11" font-weight="bold" text-anchor="middle" opacity="undefined"></text><circle r="5" fill="undefined" stroke="undefined" opacity="undefined" stroke-width="1"></circle></g></g></g><g transform="translate(0.5,0.5)"></g></svg>