<svg xmlns="http://www.w3.org/2000/svg" viewBox="0 0 1200 380" width="1200" height="380" role="img" aria-label="인프라와 네트워크 허브 일러스트">
  <defs>
    <linearGradient id="bg" x1="0" y1="0" x2="0" y2="1">
      <stop offset="0" stop-color="#0E130E"/><stop offset="1" stop-color="#070707"/>
    </linearGradient>
    <pattern id="dots" width="26" height="26" patternUnits="userSpaceOnUse">
      <circle cx="2" cy="2" r="1.2" fill="#1DB954" opacity="0.08"/>
    </pattern>
  </defs>
  <rect width="1200" height="380" fill="url(#bg)"/>
  <rect width="1200" height="380" fill="url(#dots)"/>
  <rect x="88" y="296" width="34" height="44" rx="4" fill="#1DB954" fill-opacity="0.12" stroke="#1DB954" stroke-width="2.5"/><rect x="146" y="270" width="34" height="70" rx="4" fill="#1DB954" fill-opacity="0.12" stroke="#1DB954" stroke-width="2.5"/><rect x="204" y="288" width="34" height="52" rx="4" fill="#1DB954" fill-opacity="0.12" stroke="#1DB954" stroke-width="2.5"/><rect x="262" y="254" width="34" height="86" rx="4" fill="#1DB954" fill-opacity="0.12" stroke="#1DB954" stroke-width="2.5"/><rect x="320" y="280" width="34" height="60" rx="4" fill="#1DB954" fill-opacity="0.12" stroke="#1DB954" stroke-width="2.5"/><rect x="378" y="262" width="34" height="78" rx="4" fill="#1DB954" fill-opacity="0.12" stroke="#1DB954" stroke-width="2.5"/><rect x="436" y="292" width="34" height="48" rx="4" fill="#1DB954" fill-opacity="0.12" stroke="#1DB954" stroke-width="2.5"/><rect x="494" y="268" width="34" height="72" rx="4" fill="#1DB954" fill-opacity="0.12" stroke="#1DB954" stroke-width="2.5"/><rect x="552" y="284" width="34" height="56" rx="4" fill="#1DB954" fill-opacity="0.12" stroke="#1DB954" stroke-width="2.5"/><rect x="610" y="250" width="34" height="90" rx="4" fill="#1DB954" fill-opacity="0.12" stroke="#1DB954" stroke-width="2.5"/><rect x="668" y="290" width="34" height="50" rx="4" fill="#1DB954" fill-opacity="0.12" stroke="#1DB954" stroke-width="2.5"/><rect x="726" y="266" width="34" height="74" rx="4" fill="#1DB954" fill-opacity="0.12" stroke="#1DB954" stroke-width="2.5"/><rect x="784" y="294" width="34" height="46" rx="4" fill="#1DB954" fill-opacity="0.12" stroke="#1DB954" stroke-width="2.5"/><rect x="842" y="272" width="34" height="68" rx="4" fill="#1DB954" fill-opacity="0.12" stroke="#1DB954" stroke-width="2.5"/><rect x="900" y="282" width="34" height="58" rx="4" fill="#1DB954" fill-opacity="0.12" stroke="#1DB954" stroke-width="2.5"/><rect x="958" y="258" width="34" height="82" rx="4" fill="#1DB954" fill-opacity="0.12" stroke="#1DB954" stroke-width="2.5"/><rect x="1016" y="296" width="34" height="44" rx="4" fill="#1DB954" fill-opacity="0.12" stroke="#1DB954" stroke-width="2.5"/><rect x="1074" y="270" width="34" height="70" rx="4" fill="#1DB954" fill-opacity="0.12" stroke="#1DB954" stroke-width="2.5"/>
  <line x1="60" y1="342" x2="1140" y2="342" stroke="#1DB954" stroke-width="2" opacity="0.5"/>
  <line x1="250" y1="140" x2="430" y2="92" stroke="#1DB954" stroke-width="2" opacity="0.35"/><line x1="430" y1="92" x2="660" y2="132" stroke="#1DB954" stroke-width="2" opacity="0.35"/><line x1="660" y1="132" x2="860" y2="98" stroke="#1DB954" stroke-width="2" opacity="0.35"/><line x1="860" y1="98" x2="1010" y2="150" stroke="#1DB954" stroke-width="2" opacity="0.35"/><line x1="600" y1="206" x2="250" y2="140" stroke="#1DB954" stroke-width="2" opacity="0.5"/><line x1="600" y1="206" x2="430" y2="92" stroke="#1DB954" stroke-width="2" opacity="0.5"/><line x1="600" y1="206" x2="660" y2="132" stroke="#1DB954" stroke-width="2" opacity="0.5"/><line x1="600" y1="206" x2="860" y2="98" stroke="#1DB954" stroke-width="2" opacity="0.5"/><line x1="600" y1="206" x2="1010" y2="150" stroke="#1DB954" stroke-width="2" opacity="0.5"/>
  <circle cx="250" cy="140" r="8" fill="#0A0A0A" stroke="#1DB954" stroke-width="2.5"/><circle cx="430" cy="92" r="8" fill="#0A0A0A" stroke="#1DB954" stroke-width="2.5"/><circle cx="660" cy="132" r="8" fill="#0A0A0A" stroke="#1DB954" stroke-width="2.5"/><circle cx="860" cy="98" r="8" fill="#0A0A0A" stroke="#1DB954" stroke-width="2.5"/><circle cx="1010" cy="150" r="8" fill="#0A0A0A" stroke="#1DB954" stroke-width="2.5"/>
  <circle cx="600" cy="206" r="30" fill="none" stroke="#1DB954" stroke-width="2" opacity="0.25"/><circle cx="600" cy="206" r="20" fill="none" stroke="#1DB954" stroke-width="2" opacity="0.45"/><circle cx="600" cy="206" r="13" fill="#1DB954"/>
</svg>
